<svg xmlns="http://www.w3.org/2000/svg" viewBox="0 0 512 512" width="512" height="512">
  <rect width="512" height="512" rx="100" fill="#0A0A0A" />
  <circle cx="256" cy="256" r="192" fill="#18181B" stroke="#D97706" stroke-width="10" />
  <!-- Coffee Cup Icon -->
  <path d="M160 200h180v88a64 64 0 0 1-64 64h-52a64 64 0 0 1-64-64v-88z" fill="#D97706" />
  <path d="M340 220h32a32 32 0 0 1 0 64h-32v-64z" fill="none" stroke="#D97706" stroke-width="10" stroke-linecap="round" />
  <!-- Steam Curves -->
  <path d="M200 160c0-16 10-22 10-38s-10-22-10-38" stroke="#F59E0B" stroke-width="8" stroke-linecap="round" fill="none" />
  <path d="M256 150c0-16 10-22 10-38s-10-22-10-38" stroke="#F59E0B" stroke-width="8" stroke-linecap="round" fill="none" />
  <path d="M312 160c0-16 10-22 10-38s-10-22-10-38" stroke="#F59E0B" stroke-width="8" stroke-linecap="round" fill="none" />
</svg>
